HIERARCHY
ROOT hip
{
	OFFSET 0.000000 0.000000 0.000000 
	CHANNELS 6 Xposition Yposition Zposition Xrotation Zrotation Yrotation
	JOINT abdomen
	{
		OFFSET 0.000000 3.402643 0.000000 
		CHANNELS 3 Xrotation Zrotation Yrotation
		JOINT chest
		{
			OFFSET 0.000000 8.438565 -0.680529 
			CHANNELS 3 Xrotation Zrotation Yrotation
			JOINT neck
			{
				OFFSET 0.000000 10.207942 -0.272212 
				CHANNELS 3 Xrotation Zrotation Yrotation
				JOINT head
				{
					OFFSET 0.000000 3.130431 0.000000 
					CHANNELS 3 Xrotation Zrotation Yrotation
					End Site
					{
						OFFSET 0.000000 3.130435 0.000000 
					}
				}
			}
			JOINT lCollar
			{
				OFFSET 3.470700 6.669187 -0.816635 
				CHANNELS 3 Yrotation Zrotation Xrotation
				JOINT lShldr
				{
					OFFSET 3.198488 0.000000 0.000000 
					CHANNELS 3 Zrotation Yrotation Xrotation
					JOINT lForeArm
					{
						OFFSET 10.139888 0.000000 0.000000 
						CHANNELS 3 Yrotation Zrotation Xrotation
						JOINT lHand
						{
							OFFSET 8.370511 0.000000 0.000000 
							CHANNELS 3 Zrotation Yrotation Xrotation
							End Site
							{
								OFFSET 4.083176 0.000000 0.000000 
							}
						}
					}
				}
			}
			JOINT rCollar
			{
				OFFSET -3.470700 6.669187 -0.816635 
				CHANNELS 3 Yrotation Zrotation Xrotation
				JOINT rShldr
				{
					OFFSET -3.198488 0.000000 0.000000 
					CHANNELS 3 Zrotation Yrotation Xrotation
					JOINT rForeArm
					{
						OFFSET -10.139888 0.000000 0.000000 
						CHANNELS 3 Yrotation Zrotation Xrotation
						JOINT rHand
						{
							OFFSET -8.370511 0.000000 0.000000 
							CHANNELS 3 Zrotation Yrotation Xrotation
							End Site
							{
								OFFSET -4.083176 0.000000 0.000000 
							}
						}
					}
				}
			}
		}
	}
	JOINT lThigh
	{
		OFFSET 5.308129 -1.633274 1.361059 
		CHANNELS 3 Xrotation Zrotation Yrotation
		JOINT lShin
		{
			OFFSET -2.041588 -20.007561 0.000000 
			CHANNELS 3 Xrotation Zrotation Yrotation
			JOINT lFoot
			{
				OFFSET 0.000000 -19.190928 -1.224953 
				CHANNELS 3 Xrotation Yrotation Zrotation
				End Site
				{
					OFFSET 0.000000 -2.449906 4.627600 
				}
			}
		}
	}
	JOINT rThigh
	{
		OFFSET -5.308129 -1.633274 1.361059 
		CHANNELS 3 Xrotation Zrotation Yrotation
		JOINT rShin
		{
			OFFSET 2.041588 -20.007561 0.000000 
			CHANNELS 3 Xrotation Zrotation Yrotation
			JOINT rFoot
			{
				OFFSET 0.000000 -19.190928 -1.224953 
				CHANNELS 3 Xrotation Yrotation Zrotation
				End Site
				{
					OFFSET 0.000000 -2.449906 4.627600 
				}
			}
		}
	}
}
MOTION
Frames: 8
Frame Time: 0.033333
7.087151 51.931332 -13.025749 -10.966796 -5.888671 150.702133 21.324011 -11.810407 0.009620 -9.794922 6.064454 2.667047 51.063168 8.107644 2.471410 -75.361328 -0.439453 50.761719 2.000000 -2.000000 0.000000 -101.230469 25.224609 -20.171618 -58.671734 -1.648837 -2.325694 17.624887 42.072090 -5.738432 -2.000000 2.000000 0.000000 77.080078 -11.982421 18.376883 40.008389 2.122857 -1.564284 -73.468903 -44.562443 44.483326 -7.942256 7.933599 -4.138166 21.608496 -4.654576 -2.426643 -11.173115 -1.236711 -1.372033 -18.316713 -5.740033 -15.744907 21.261599 4.812487 1.939429 -10.671490 -5.334342 -4.735561 
7.210424 51.931332 -12.951470 -10.966796 -5.888671 150.702133 21.171988 -11.983664 -0.059403 -9.970703 6.074219 2.636719 51.063168 8.107644 2.471410 -74.804688 -0.332031 48.750027 2.000000 -2.000000 0.000000 -101.552734 26.357422 -20.625000 -58.833317 -1.199341 -2.166125 17.163891 40.207966 -6.068097 -2.000000 2.000000 0.000000 77.050781 -12.890625 18.669697 40.525833 1.936486 -1.555627 -73.556122 -44.812401 44.295368 -8.065389 8.104603 -3.961838 21.589636 -4.472787 -2.549538 -10.989034 -1.201537 -1.557630 -18.181911 -5.428936 -15.295285 21.072586 4.853133 1.327210 -10.288289 -5.381042 -4.625590 
7.337935 51.915588 -12.873662 -10.966796 -5.722657 150.663086 21.008909 -12.138671 -0.119601 -10.322266 6.093750 2.597657 51.063168 8.107644 2.471410 -74.287109 -0.224609 47.099613 2.000000 -2.000000 0.000000 -101.718750 26.884768 -21.245584 -58.835228 -1.369619 -2.234418 17.166977 39.153065 -5.638020 -2.000000 2.000000 0.000000 77.333984 -14.394531 18.691404 41.053455 1.927308 -1.565943 -74.058243 -44.890327 44.627399 -8.180017 8.444179 -4.181939 21.959244 -4.755751 -2.424095 -10.990470 -1.277133 -1.193876 -17.973352 -5.026329 -15.860510 20.894230 4.793842 1.925317 -10.288929 -5.290282 -4.592258 
7.450261 51.915588 -12.794570 -11.152344 -5.693359 150.673843 21.022549 -12.302779 -0.183238 -10.673828 6.279297 2.442474 51.063168 8.107644 2.471410 -73.759766 -0.273438 45.517605 2.000000 -2.000000 0.000000 -101.630859 27.236330 -21.362717 -58.657269 -1.198773 -2.156379 16.710062 40.170872 -6.175432 -2.000000 2.000000 0.000000 77.294922 -15.263671 18.593748 41.582359 2.058038 -1.627099 -73.893227 -45.066975 44.214798 -8.143454 8.612362 -4.173706 22.135073 -4.794886 -2.328694 -10.821211 -1.222766 -1.164548 -17.984352 -4.860948 -15.875209 20.546112 4.804376 1.742624 -10.341353 -5.130930 -4.690585 
7.574368 51.915588 -12.703857 -11.152344 -5.693359 150.673843 21.013996 -12.723452 -0.149225 -11.201171 6.474610 2.432742 51.063168 8.107644 2.471410 -73.242188 -0.488281 43.994144 2.000000 -2.000000 0.000000 -101.757813 27.128906 -21.899843 -58.483387 -1.378801 -2.224105 16.868774 42.283497 -6.080234 -2.000000 2.000000 0.000000 77.636719 -16.035154 18.925783 41.581619 1.909522 -1.596320 -73.604668 -44.893581 43.926491 -8.443783 8.815383 -4.196961 22.497171 -4.781394 -2.365706 -10.647546 -1.200175 -0.955918 -17.819851 -4.705640 -15.720321 20.545742 4.833449 1.864042 -10.326023 -5.086295 -4.711596 
7.678955 51.891945 -12.609859 -11.162109 -5.888671 150.722656 20.876852 -13.048128 -0.287996 -11.718750 6.660157 2.255859 51.063168 8.107644 2.471410 -72.734375 -0.693359 42.460938 2.000000 -2.000000 0.000000 -101.835938 27.314453 -21.938881 -58.318485 -1.527876 -2.264300 16.960773 44.004307 -6.025770 -2.000000 2.000000 0.000000 77.705078 -16.328125 19.137880 41.581619 1.909522 -1.596320 -73.766174 -44.746117 43.765720 -8.577999 8.979106 -4.052850 22.662180 -4.629006 -2.487893 -10.328882 -0.950116 -1.197416 -17.841234 -4.550751 -15.394432 20.368834 4.882412 1.410061 -10.248137 -4.963114 -4.538880 
7.794682 51.899826 -12.511522 -11.162109 -5.888671 150.722656 20.891615 -13.215588 -0.344845 -12.236327 6.865235 2.081245 51.063168 8.107644 2.471410 -72.216797 -0.908203 40.947266 2.000000 -2.000000 0.000000 -102.216797 27.812502 -21.953129 -58.494553 -1.518694 -2.274614 16.850555 43.992638 -5.819022 -2.000000 2.000000 0.000000 77.890625 -16.337891 19.453127 41.581619 1.909522 -1.596320 -73.553223 -44.753445 43.719315 -8.745364 8.970609 -3.866600 22.994202 -4.420043 -2.641594 -9.800305 -1.042773 -0.922158 -17.642670 -4.333848 -15.776518 20.190866 4.822933 1.707050 -10.294416 -4.756972 -4.657748 
7.902751 51.907703 -12.417745 -11.162109 -5.888671 150.546875 20.709040 -13.630396 -0.298710 -12.763671 6.884766 2.012889 51.063168 8.107644 2.471410 -71.699219 -0.957031 38.994141 2.000000 -2.000000 0.000000 -103.007813 28.310549 -22.094976 -58.657269 -1.198773 -2.156379 16.567036 43.352871 -5.994051 -2.000000 2.000000 0.000000 77.968750 -16.650391 19.658203 41.757660 1.910093 -1.606066 -73.470337 -44.464554 43.386772 -8.860954 9.125377 -3.722716 23.365122 -4.521590 -2.651038 -9.608853 -0.948810 -1.025741 -17.473734 -4.166564 -15.562400 19.836721 4.884393 1.629441 -10.178116 -4.855136 -4.342008 
